<svg width="30" height="32" viewBox="0 0 30 32" fill="none" xmlns="http://www.w3.org/2000/svg">
<path d="M4.8 15.6824C4.8 10.0424 9.36 5.48242 15 5.48242C20.64 5.48242 25.2 10.0424 25.2 15.6824C25.2 21.3224 20.64 25.8824 15 25.8824C9.36 25.8824 4.8 21.3224 4.8 15.6824ZM24 15.6824C24 10.7024 19.98 6.68242 15 6.68242C10.02 6.68242 6 10.7024 6 15.6824C6 20.6624 10.02 24.6824 15 24.6824C19.98 24.6824 24 20.6624 24 15.6824Z" fill="black"/>
<path d="M9.18 15.5021L10.02 14.6621L15 19.6421L19.98 14.6621L20.82 15.5021L15 21.3221L9.18 15.5021Z" fill="black"/>
<path d="M15.6 10.2822V20.4823H14.4V10.2822H15.6Z" fill="black"/>
</svg>
